<svg width="882" height="204" viewBox="0 0 882 204" fill="none" xmlns="http://www.w3.org/2000/svg">
<path fill-rule="evenodd" clip-rule="evenodd" d="M0.516235 9.48221V18.3988H10.1877H19.8591V44.2101V70.0213H30.4517H41.0442V44.2101V18.3988H50.7157H60.3871V9.48221V0.565588H30.4517H0.516235V9.48221ZM63.1504 35.2935V70.0213H92.1648H121.179V61.1047V52.1881H102.757H84.3355V47.9645V43.7408H102.757H121.179V35.2935V26.8461H102.757H84.3355V22.6225V18.3988H102.757H121.179V9.48221V0.565588H92.1648H63.1504V35.2935ZM124.863 35.2813V70.1462L146.279 69.8486C167.23 69.5586 167.807 69.4986 172.903 67.0638C179.62 63.8548 185.036 58.1125 187.664 51.4128C190.675 43.7361 190.693 26.8921 187.698 19.2633C184.901 12.1422 180.195 6.82881 173.888 3.67326C168.624 1.03958 168.576 1.03394 146.739 0.726086L124.863 0.416351V35.2813ZM199.052 9.24756C208.191 22.4901 208.101 20.3783 200.033 32.2693C196.178 37.9506 193.024 42.8726 193.024 43.2077C193.024 43.5427 196.428 43.6939 200.586 43.5437L208.148 43.2715L210.949 38.3608C212.489 35.6595 213.972 33.4416 214.245 33.4332C214.518 33.4238 216.122 35.7393 217.812 38.5785L220.882 43.7408H228.619H236.357L229.658 33.6763C225.974 28.1414 222.658 23.1265 222.289 22.5333C221.906 21.9167 223.909 18.0816 226.96 13.5914C229.897 9.26633 233.045 4.5668 233.954 3.14671L235.606 0.565588H227.817H220.029L217.522 5.25854C216.144 7.83967 214.693 9.9515 214.299 9.9515C213.903 9.9515 212.453 7.83967 211.075 5.25854L208.568 0.565588H200.814H193.059L199.052 9.24756ZM160.768 20.5107C166.832 23.6681 168.53 26.6256 168.878 34.6374C169.41 46.8945 164.567 52.1881 152.82 52.1881H146.049V35.2935V18.3988H151.38C155.093 18.3988 157.943 19.0399 160.768 20.5107ZM8.98382 114.37C9.25462 139.731 9.35871 141.089 11.3842 145.567C13.9715 151.287 16.4253 154.057 21.2408 156.696C24.3725 158.412 26.4449 158.715 35.0571 158.717C43.872 158.718 45.7685 158.427 49.6472 156.482C52.2355 155.184 55.2336 152.659 56.7949 150.462C61.6785 143.592 62.2293 139.75 62.2293 112.556V87.8546H57.6773H53.1252L52.8415 113.9C52.5275 142.751 52.3405 143.735 46.3543 148.085C43.9365 149.843 41.9036 150.332 35.9782 150.583C29.4845 150.858 28.2328 150.635 25.4354 148.703C23.69 147.496 21.4103 145.034 20.3694 143.229C18.6046 140.167 18.4582 138.193 18.1938 113.9L17.9101 87.8546H13.3056H8.70105L8.98382 114.37ZM128.548 93.0168V98.1791H132.693H136.838V93.0168V87.8546H132.693H128.548V93.0168ZM329.346 93.0168V98.1791H333.491H337.635V93.0168V87.8546H333.491H329.346V93.0168ZM478.562 122.485V157.31L497.214 157.29C513.419 157.272 516.35 157.041 519.551 155.527C534.286 148.561 535.609 127.45 521.68 121.571L518.954 120.42L521.826 118.567C529.874 113.375 530.292 100.102 522.634 92.8451C518.614 89.0344 515.628 88.4834 496.754 88.0629L478.562 87.6584V122.485ZM695.019 93.0168V98.1791H699.164H703.308V93.0168V87.8546H699.164H695.019V93.0168ZM715.283 93.0168V98.1791H719.888H724.493V93.0168V87.8546H719.888H715.283V93.0168ZM352.373 99.587V106.626H349.149C346.002 106.626 345.925 106.716 345.925 110.381C345.925 114.034 346.011 114.135 349.097 114.135H352.27L352.552 133.772C352.829 153.077 352.871 153.45 355.066 155.829C357.01 157.935 358.055 158.249 363.126 158.249H368.953V154.495C368.953 150.873 368.845 150.74 365.913 150.74C364.241 150.74 362.376 150.233 361.768 149.614C360.989 148.82 360.663 143.419 360.663 131.311V114.135H364.808H368.953V110.381V106.626H364.808H360.663V99.587V92.5475H356.518H352.373V99.587ZM515.104 98.7441C518.529 101.353 519.683 105.6 518.273 110.397C516.604 116.072 513.636 117.23 499.517 117.711L487.773 118.111V107.134V96.1564L500.144 96.4643C510.999 96.7337 512.832 97.0124 515.104 98.7441ZM93.3143 106.971C91.4131 107.693 88.4086 109.41 86.6364 110.788L83.4144 113.292V109.959C83.4144 106.635 83.4033 106.626 79.2695 106.626H75.1246V131.968V157.31H79.1663H83.209L83.5507 140.65C83.851 125.999 84.1172 123.598 85.7586 120.738C88.2188 116.452 92.5516 113.981 97.7512 113.9C101.138 113.849 102.444 114.328 104.432 116.351L106.902 118.867L107.185 138.088L107.468 157.31H111.609H115.75L115.471 136.258C115.166 113.275 115.062 112.818 109.093 108.277C106.042 105.956 97.7862 105.272 93.3143 106.971ZM211.776 106.53C201.311 109.267 194.819 119.03 194.546 132.438C194.373 140.934 196.12 146.886 200.22 151.767C204.622 157.007 209.479 159.146 216.973 159.146C227.823 159.146 235.506 153.566 238.564 143.466C239.161 141.494 238.93 141.354 235.086 141.354C231.261 141.354 230.842 141.604 229.178 144.874C226.773 149.596 222.46 152.05 216.72 151.962C209.527 151.852 205.179 147.333 203.576 138.304L202.951 134.784H221.507H240.063L239.521 129.857C238.226 118.083 234.971 112.114 227.819 108.397C223.683 106.246 216.191 105.374 211.776 106.53ZM267.633 106.736C266.366 107.247 263.776 109.207 261.876 111.09L258.422 114.516V110.571V106.626H254.277H250.132V131.968V157.31H254.277H258.422V142.636C258.422 134.341 258.879 126.405 259.474 124.381C261.072 118.949 264.799 115.834 270.353 115.29L275.001 114.835V110.262C275.001 105.883 274.893 105.691 272.468 105.747C271.076 105.78 268.899 106.225 267.633 106.736ZM291.087 106.932C284.185 109.652 280.528 114.557 280.528 121.092C280.528 129.359 283.672 131.866 299.369 136.114C304.413 137.48 309.282 139.283 310.192 140.121C312.007 141.795 312.343 145.222 310.951 147.873C309.865 149.94 303.612 152.617 299.871 152.617C293.319 152.617 286.975 147.792 286.975 142.809C286.975 141.711 285.959 141.354 282.831 141.354C279.481 141.354 278.693 141.67 278.726 142.997C278.792 145.688 281.151 151.662 282.973 153.754C288.947 160.613 307.206 161.463 314.721 155.231C319.539 151.239 321.625 142.065 318.945 136.665C317.311 133.373 311.857 130.667 301.933 128.222C292.185 125.822 288.818 123.67 288.818 119.844C288.818 116.2 291.695 113.939 296.99 113.42C303.477 112.785 307.942 114.542 309.771 118.451C311.131 121.357 311.624 121.644 315.257 121.644C319.14 121.644 319.233 121.573 318.661 119.063C317.333 113.23 312.439 108.177 306.69 106.701C301.662 105.412 294.685 105.515 291.087 106.932ZM389.216 106.731C385.561 107.857 380.45 111.537 379.178 113.956C378.711 114.848 378.036 117.154 377.682 119.08L377.037 122.582H381.285C384.877 122.582 385.532 122.301 385.532 120.758C385.532 119.754 386.512 117.771 387.711 116.352C389.584 114.132 390.712 113.724 395.77 113.433C400.486 113.162 402.244 113.473 404.645 115.009C407.306 116.711 407.638 117.396 407.638 121.181C407.638 126.361 406.956 126.749 395.204 128.233C390.644 128.808 385.164 130.067 383.024 131.029C374.288 134.959 371.968 146.945 378.504 154.381C384.315 160.993 396.664 160.828 405.422 154.022L408.372 151.729L408.959 154.113C409.692 157.09 414.969 159.552 418.787 158.697C421.095 158.18 421.455 157.668 421.455 154.89C421.455 152.128 421.146 151.679 419.25 151.679C418.038 151.679 416.795 151.011 416.487 150.194C416.18 149.377 415.928 141.332 415.928 132.315C415.928 113.517 415.393 111.577 409.341 108.431C404.905 106.125 394.132 105.215 389.216 106.731ZM439.416 106.835C432.48 109.34 428.788 114.174 428.526 121.091C428.233 128.789 432.249 131.942 447.664 136.114C457.845 138.87 460.14 140.379 460.14 144.316C460.14 149.626 452.927 153.417 445.099 152.221C439.748 151.404 436.421 148.716 435.663 144.599C435.09 141.484 434.904 141.354 431.024 141.354C427.44 141.354 426.983 141.594 427.001 143.466C427.028 146.301 429.983 152.705 432.181 154.694C436.932 158.992 448.486 160.708 456.949 158.373C465.812 155.926 471.069 144.583 467.029 136.624C465.227 133.071 460.82 130.872 450.229 128.241C440.403 125.8 437.113 123.674 437.113 119.767C437.113 115.74 440.829 113.193 446.679 113.211C452.433 113.228 455.416 114.665 457.836 118.584C459.364 121.06 460.271 121.578 463.134 121.607C466.013 121.638 466.588 121.324 466.588 119.72C466.588 114.803 460.844 108.318 455.074 106.719C450.51 105.454 443.085 105.509 439.416 106.835ZM558.697 106.736C557.431 107.247 554.841 109.207 552.94 111.09L549.486 114.516V110.571V106.626H545.341H541.196V131.968V157.31H545.341H549.486V141.938C549.486 125.307 550.153 122.084 554.442 117.989C556.061 116.443 558.241 115.601 561.43 115.289L566.066 114.835V110.262C566.066 105.883 565.957 105.691 563.533 105.747C562.139 105.78 559.964 106.225 558.697 106.736ZM585.191 106.623C578.294 108.738 573.435 114.328 573.435 120.143C573.435 122.355 573.771 122.582 577.047 122.582C580.363 122.582 580.748 122.311 581.73 119.281C583.032 115.26 586.56 113.197 592.134 113.197C600.153 113.197 603.846 115.774 603.817 121.347C603.792 125.945 602.729 126.569 592.661 127.892C580.571 129.482 578.143 130.333 574.368 134.303C571.835 136.965 571.215 138.438 570.877 142.603C570.329 149.333 572.422 153.811 577.55 156.873C584.179 160.832 593.479 159.812 600.325 154.376L603.728 151.674L604.939 154.25C606.552 157.679 610.331 159.438 614.41 158.659C617.34 158.099 617.647 157.745 617.647 154.922C617.647 152.218 617.311 151.764 615.114 151.506L612.581 151.209L612.12 132.562L611.66 113.916L608.168 110.843C602.963 106.26 592.583 104.354 585.191 106.623ZM749.76 106.569C742.827 108.26 737.389 114.252 737.389 120.198C737.389 122.334 737.754 122.582 740.896 122.582C744.079 122.582 744.547 122.248 745.963 118.978C747.771 114.803 750.609 113.197 756.177 113.197C764.185 113.197 767.785 115.777 767.785 121.515C767.785 125.862 766.061 126.806 755.905 128.021C745.97 129.208 741.215 131.062 737.389 135.237C735.409 137.398 735.086 138.63 735.086 144.011C735.086 151.184 736.612 154.055 742.12 157.247C748.227 160.786 760.386 159.053 765.066 153.977C767.595 151.234 768.706 151.061 768.706 153.41C768.706 156.926 773.647 159.561 778.501 158.633C781.281 158.101 781.601 157.719 781.601 154.922C781.601 152.218 781.265 151.764 779.068 151.506L776.535 151.209L776.075 132.731L775.614 114.253L772.888 111.356C768.452 106.641 758.181 104.516 749.76 106.569ZM848.972 107.033C842.583 109.154 837.788 115.002 837.788 120.675C837.788 122.31 838.38 122.582 841.933 122.582C845.423 122.582 846.077 122.294 846.077 120.758C846.077 119.754 847.078 117.748 848.3 116.3C850.336 113.888 851.059 113.666 856.861 113.666C865.552 113.666 868.184 115.421 868.184 121.216C868.184 126.361 867.473 126.761 855.749 128.211C841.069 130.028 835.485 134.426 835.485 144.17C835.485 153.319 840.52 158.388 850.233 159.019C855.335 159.35 856.962 159.033 861.326 156.857C864.139 155.455 866.922 153.523 867.508 152.564C868.486 150.97 868.658 151.077 869.531 153.821C870.726 157.571 874.535 159.591 878.854 158.765C881.714 158.219 882 157.869 882 154.922C882 152.127 881.695 151.679 879.796 151.679C878.584 151.679 877.34 151.011 877.033 150.194C876.725 149.377 876.473 141.312 876.473 132.272C876.473 113.347 875.965 111.66 869.256 108.352C864.151 105.833 854.48 105.204 848.972 107.033ZM144.206 107.17C144.206 107.523 148.245 118.948 153.182 132.561L162.159 157.31L166.768 157.308L171.379 157.306L179.109 136.425C183.361 124.939 187.612 113.515 188.556 111.036L190.272 106.528L185.546 106.812L180.819 107.096L174.253 126.497C170.642 137.168 167.423 146.166 167.102 146.494C166.78 146.823 163.663 138.092 160.174 127.093L153.833 107.096L149.019 106.812C146.372 106.655 144.206 106.817 144.206 107.17ZM620.906 108.614C622.342 113.227 632.65 149.664 633.552 153.321L634.537 157.31H639.24H643.943L648.614 138.304L653.286 119.297L654.512 123.521C655.187 125.844 657.427 134.291 659.49 142.293L663.241 156.841L667.848 157.117L672.456 157.392L674.998 148.2C676.396 143.144 679.608 131.833 682.134 123.065C684.661 114.296 686.729 106.987 686.729 106.823C686.729 106.658 684.798 106.653 682.437 106.809L678.147 107.096L673.457 125.575C670.878 135.739 668.497 144.321 668.165 144.648C667.834 144.973 665.536 136.658 663.059 126.168L658.554 107.096L653.915 106.818L649.276 106.539L645.439 121.835C643.329 130.248 641.1 139.415 640.485 142.207L639.369 147.283L635.118 129.536C632.78 119.775 630.578 110.627 630.226 109.208C629.634 106.819 629.24 106.626 624.937 106.626C620.618 106.626 620.33 106.768 620.906 108.614ZM785.722 110.146C788.947 118.596 802.786 158.359 802.786 159.173C802.786 159.668 801.773 162.408 800.534 165.261L798.282 170.451H793.626H788.97V174.205C788.97 177.651 789.178 177.968 791.503 178.059C798.487 178.333 802.128 177.266 804.366 174.287C807.293 170.391 815.072 150.528 826.196 118.546L830.374 106.53L825.633 106.813L820.893 107.096L814.263 127.275C808.36 145.242 807.524 147.198 806.646 145.109C806.103 143.818 803.051 134.632 799.865 124.694L794.072 106.626H789.226H784.379L785.722 110.146ZM128.548 132.438V157.31H132.693H136.838V132.438V107.565H132.693H128.548V132.438ZM329.346 132.438V157.31H333.491H337.635V132.438V107.565H333.491H329.346V132.438ZM695.019 132.438V157.31H699.164H703.308V132.438V107.565H699.164H695.019V132.438ZM715.283 138.438C715.283 172.039 715.538 170.451 710.141 170.451C708.157 170.451 707.914 170.86 707.914 174.205C707.914 177.935 707.937 177.959 711.461 177.959C716.515 177.959 720.426 176.335 722.36 173.431C723.879 171.151 724.061 168.003 724.329 139.242L724.624 107.565H719.953H715.283V138.438ZM224.865 115.499C227.293 117.12 230.732 123.57 230.769 126.571C230.787 128.063 229.529 128.214 217.069 128.214H203.351L204.113 124.767C206.274 115.005 216.971 110.228 224.865 115.499ZM516.022 127.216C520.71 129.385 521.854 131.395 521.854 137.467C521.854 146.998 516.527 149.802 498.418 149.802H487.773V137.6V125.398L499.978 125.419C509.956 125.436 512.883 125.763 516.022 127.216ZM406.236 145.149C405.264 147.065 403.26 148.758 400.484 150.009C391.516 154.052 384.405 151.665 383.873 144.435C383.488 139.2 387.08 136.1 394.504 135.258C397.422 134.927 401.467 134.157 403.493 133.547L407.178 132.438L407.453 137.324C407.63 140.48 407.2 143.251 406.236 145.149ZM603.665 138.053C603.342 143.209 602.875 144.573 600.601 146.991C597.534 150.254 590.268 152.81 586.34 152.009C580.59 150.838 577.781 145.463 580.312 140.477C582.1 136.953 583.686 136.258 593.292 134.782C597.316 134.165 601.229 133.292 601.988 132.842C602.748 132.393 603.522 132.012 603.707 131.997C603.893 131.982 603.874 134.706 603.665 138.053ZM767.619 138.053C767.297 143.209 766.83 144.573 764.555 146.991C761.507 150.234 754.024 152.885 750.392 152.008C745.161 150.746 742.354 146.09 743.972 141.361C745.25 137.624 748.168 136.174 757.192 134.79C761.245 134.167 765.183 133.292 765.943 132.842C766.702 132.393 767.476 132.012 767.661 131.997C767.847 131.982 767.828 134.706 767.619 138.053ZM866.872 144.971C866.042 146.607 863.738 148.587 861.222 149.828C852.439 154.16 844.957 151.759 844.419 144.435C844.001 138.767 847.374 136.262 857.37 134.816C861.612 134.202 865.675 133.324 866.402 132.864C868.368 131.617 868.743 141.284 866.872 144.971ZM43.8075 178.898C43.8075 180.275 44.4219 180.775 46.1102 180.775C47.7986 180.775 48.4129 180.275 48.4129 178.898C48.4129 177.521 47.7986 177.021 46.1102 177.021C44.4219 177.021 43.8075 177.521 43.8075 178.898ZM77.8878 180.963C77.8878 184.029 77.6419 184.654 76.7825 183.779C75.0776 182.041 70.7236 182.444 68.6769 184.529C65.9616 187.296 66.1762 193.33 69.096 196.304C71.3113 198.562 75.4543 199.404 76.4298 197.796C76.7006 197.349 77.9689 197.186 79.2474 197.436L81.5722 197.888V187.455C81.5722 177.647 81.4617 177.021 79.73 177.021C78.1798 177.021 77.8878 177.647 77.8878 180.963ZM160.786 180.89C160.786 184.145 160.576 184.582 159.464 183.642C158.738 183.027 156.769 182.659 155.089 182.823C152.64 183.062 151.721 183.778 150.443 186.439C147.261 193.065 151.503 199.867 157.724 198.114C159.155 197.71 161.258 197.475 162.398 197.592C164.434 197.8 164.47 197.626 164.47 187.413C164.47 177.647 164.36 177.021 162.628 177.021C161.084 177.021 160.786 177.647 160.786 180.89ZM208.683 187.345V197.67H210.985H213.288V187.345V177.021H210.985H208.683V187.345ZM313.687 178.898C313.687 180.149 314.301 180.775 315.529 180.775C316.757 180.775 317.371 180.149 317.371 178.898C317.371 177.647 316.757 177.021 315.529 177.021C314.301 177.021 313.687 177.647 313.687 178.898ZM360.663 180.247C360.663 183.413 360.603 183.463 357.418 182.937C351.528 181.962 347.815 188.595 350.876 194.626C352.701 198.224 354.146 198.744 360.276 198.01L365.268 197.412V187.216V177.021H362.965C360.956 177.021 360.663 177.432 360.663 180.247ZM373.558 178.898C373.558 180.418 374.172 180.775 376.782 180.775H380.006V189.222C380.006 197.607 380.023 197.67 382.308 197.67C384.594 197.67 384.611 197.607 384.611 189.222V180.775H387.835C390.444 180.775 391.059 180.418 391.059 178.898C391.059 177.152 390.444 177.021 382.308 177.021C374.172 177.021 373.558 177.152 373.558 178.898ZM392.901 187.345V197.67H400.73C407.945 197.67 408.559 197.522 408.559 195.793C408.559 194.108 407.945 193.915 402.572 193.915C396.8 193.915 396.585 193.831 396.585 191.569C396.585 189.35 396.862 189.222 401.651 189.222C406.103 189.222 406.717 188.995 406.717 187.345C406.717 185.695 406.103 185.468 401.651 185.468C396.862 185.468 396.585 185.34 396.585 183.122C396.585 180.879 396.831 180.775 402.112 180.775C407.024 180.775 407.638 180.567 407.638 178.898C407.638 177.177 407.024 177.021 400.27 177.021H392.901V187.345ZM410.402 187.345V197.67H416.313C419.565 197.67 422.896 197.407 423.716 197.087C426.038 196.178 427.902 191.621 427.902 186.851C427.902 183.302 427.409 182.006 425.21 179.764C422.78 177.288 421.927 177.021 416.46 177.021H410.402V187.345ZM200.393 180.306C200.393 181.766 199.871 182.652 199.011 182.652C198.251 182.652 197.63 183.286 197.63 184.06C197.63 184.835 198.251 185.468 199.011 185.468C200.085 185.468 200.393 186.715 200.393 191.067C200.393 195.641 200.719 196.843 202.174 197.637C205.149 199.259 207.762 198.836 207.762 196.731C207.762 195.688 207.147 194.854 206.38 194.854C205.336 194.854 204.998 193.707 204.998 190.161C204.998 186.615 205.336 185.468 206.38 185.468C207.14 185.468 207.762 184.835 207.762 184.06C207.762 183.286 207.14 182.652 206.38 182.652C205.521 182.652 204.998 181.766 204.998 180.306C204.998 178.429 204.538 177.959 202.696 177.959C200.853 177.959 200.393 178.429 200.393 180.306ZM500.668 180.306C500.668 181.766 500.146 182.652 499.287 182.652C498.527 182.652 497.905 183.286 497.905 184.06C497.905 184.835 498.527 185.468 499.287 185.468C500.361 185.468 500.668 186.715 500.668 191.067C500.668 195.641 500.995 196.843 502.45 197.637C505.424 199.259 508.037 198.836 508.037 196.731C508.037 195.688 507.423 194.854 506.656 194.854C505.612 194.854 505.274 193.707 505.274 190.161C505.274 186.615 505.612 185.468 506.656 185.468C507.415 185.468 508.037 184.835 508.037 184.06C508.037 183.286 507.415 182.652 506.656 182.652C505.796 182.652 505.274 181.766 505.274 180.306C505.274 178.429 504.813 177.959 502.971 177.959C501.129 177.959 500.668 178.429 500.668 180.306ZM421.865 182.595C423.732 184.697 424.017 190.491 422.355 192.533C421.736 193.293 419.829 193.915 418.118 193.915H415.007V187.345V180.775H417.628C419.069 180.775 420.976 181.595 421.865 182.595ZM4.55153 185.874C5.87883 187.647 6.96387 189.45 6.96387 189.88C6.96387 190.311 5.91291 192.24 4.62798 194.167L2.2921 197.67H4.57548C5.88435 197.67 7.50087 196.769 8.36209 195.558L9.86438 193.446L11.2902 195.558C12.1266 196.798 13.6666 197.67 15.0179 197.67C17.2386 197.67 17.2672 197.595 15.8128 195.558C12.1717 190.46 12.0612 189.503 14.7066 185.969L17.1898 182.652H14.8926C13.5626 182.652 11.9912 183.531 11.1613 184.739L9.72714 186.824L8.293 184.739C7.4456 183.505 5.89356 182.652 4.49995 182.652H2.14012L4.55153 185.874ZM43.8075 190.161C43.8075 197.545 43.8462 197.67 46.1102 197.67C48.3743 197.67 48.4129 197.545 48.4129 190.161C48.4129 182.777 48.3743 182.652 46.1102 182.652C43.8462 182.652 43.8075 182.777 43.8075 190.161ZM51.1762 190.161C51.1762 197.044 51.33 197.67 53.0184 197.67C54.6322 197.67 54.8606 197.044 54.8606 192.622C54.8606 187.306 56.3887 184.785 58.9935 185.803C60.0242 186.206 60.3871 187.821 60.3871 192.009C60.3871 197.421 60.4884 197.67 62.6899 197.67C64.9069 197.67 64.9926 197.446 64.9926 191.636C64.9926 187.403 64.5606 185.162 63.5456 184.127C61.8323 182.382 57.5308 182.184 55.9659 183.779C55.1065 184.654 54.8606 184.654 54.8606 183.779C54.8606 183.159 54.0316 182.652 53.0184 182.652C51.33 182.652 51.1762 183.278 51.1762 190.161ZM86.2007 184.506C80.5268 190.288 85.4261 200.181 93.0039 198.244C95.4098 197.628 98.1518 195.288 98.1518 193.849C98.1518 192.645 95.0579 192.751 93.8365 193.995C92.3674 195.492 88.5476 194.645 88.1921 192.742C87.9268 191.326 88.6453 191.1 93.4147 191.1H98.944L98.1224 188.179C97.6701 186.572 96.5593 184.684 95.6538 183.985C93.1982 182.086 88.3109 182.356 86.2007 184.506ZM99.994 193.082V203.301H102.297C104.338 203.301 104.599 202.907 104.599 199.829C104.599 197.127 104.845 196.606 105.705 197.482C106.313 198.102 107.717 198.608 108.826 198.608C114.402 198.608 117.624 190.136 113.886 185.304C112.13 183.034 111.368 182.796 105.968 182.828L99.994 182.863V193.082ZM118.835 184.957C113.902 189.983 117.765 198.608 124.949 198.608C127.299 198.608 132.248 193.764 130.503 193.172C129.835 192.945 128.346 193.272 127.197 193.898C124.507 195.366 121.746 194.815 121.352 192.732C121.089 191.339 121.797 191.1 126.178 191.1C130.573 191.1 131.311 190.848 131.311 189.349C131.311 188.386 130.452 186.486 129.402 185.125C126.838 181.804 122.004 181.727 118.835 184.957ZM133.153 190.266C133.153 197.537 133.195 197.67 135.456 197.67C137.652 197.67 137.759 197.413 137.759 192.139C137.759 187.896 138.108 186.471 139.257 186.022C141.895 184.99 143.285 187.268 143.285 192.622C143.285 197.45 143.391 197.67 145.714 197.67C148.139 197.67 148.142 197.66 147.661 191.56C147.397 188.199 146.693 184.852 146.098 184.121C145.364 183.22 143.11 182.804 139.085 182.828L133.153 182.863V190.266ZM168.574 184.957C163.808 189.812 167.099 198.608 173.681 198.608C177.239 198.608 182.702 193.733 179.801 193.147C178.861 192.956 177.637 193.263 177.084 193.827C175.456 195.486 171.984 195.007 170.918 192.977C169.983 191.196 170.218 191.1 175.491 191.1C180.302 191.1 181.05 190.864 181.05 189.349C181.05 188.386 180.191 186.486 179.141 185.125C176.577 181.804 171.743 181.727 168.574 184.957ZM182.892 190.161C182.892 197.545 182.931 197.67 185.195 197.67C187.391 197.67 187.498 197.413 187.498 192.139C187.498 187.896 187.847 186.471 188.996 186.022C191.634 184.99 193.024 187.268 193.024 192.622C193.024 197.044 193.253 197.67 194.866 197.67C196.528 197.67 196.709 197.044 196.709 191.287C196.709 184.119 195.848 182.652 191.643 182.652C190.072 182.652 188.29 183.159 187.682 183.779C186.822 184.654 186.577 184.654 186.577 183.779C186.577 183.159 185.748 182.652 184.734 182.652C183.046 182.652 182.892 183.278 182.892 190.161ZM214.209 182.909C214.209 183.049 215.453 186.455 216.973 190.477C220.243 199.132 220.286 199.547 217.894 199.547C216.666 199.547 216.051 200.173 216.051 201.424C216.051 202.749 216.661 203.297 218.124 203.287C221.587 203.263 222.413 202.117 226.123 192.202L229.694 182.652H227.555C225.774 182.652 225.116 183.553 223.62 188.049L221.823 193.446L220.253 188.049C218.901 183.399 218.374 182.652 216.447 182.652C215.216 182.652 214.209 182.768 214.209 182.909ZM239.498 184.957C236.922 187.58 236.619 190.916 238.603 194.822C241.069 199.684 249.073 199.664 251.546 194.79C254.637 188.699 251.409 182.652 245.066 182.652C242.782 182.652 241.058 183.366 239.498 184.957ZM253.816 190.161C253.816 197.545 253.855 197.67 256.119 197.67C258.255 197.67 258.422 197.344 258.422 193.165C258.422 188.402 259.564 186.407 262.29 186.407C263.334 186.407 263.948 185.711 263.948 184.529C263.948 182.413 261.307 181.964 259.527 183.779C258.668 184.654 258.422 184.654 258.422 183.779C258.422 183.159 257.385 182.652 256.119 182.652C253.855 182.652 253.816 182.777 253.816 190.161ZM266.448 184.331C263.895 187.246 264.081 193.112 266.816 195.899C268.308 197.419 269.488 197.761 271.882 197.365C274.184 196.985 275.001 197.194 275.001 198.165C275.001 200.401 271.813 201.539 269.832 200.01C267.979 198.58 264.86 198.141 264.883 199.312C264.947 202.46 269.944 204.475 274.507 203.191C278.734 202.002 279.607 199.773 279.607 190.182V182.816L273.731 182.77C269.305 182.735 267.507 183.121 266.448 184.331ZM283.061 183.959C282.175 184.645 281.449 185.687 281.449 186.275C281.449 187.593 284.81 187.699 285.594 186.407C286.348 185.163 289.47 185.204 290.237 186.47C291.093 187.88 290.426 188.326 285.918 189.358C280.481 190.603 278.806 193.904 281.975 197.134C283.501 198.688 288.376 199.157 289.183 197.827C289.444 197.396 290.92 197.233 292.461 197.463L295.265 197.883V192.354C295.265 184.939 293.668 182.643 288.535 182.682C286.411 182.698 283.947 183.273 283.061 183.959ZM297.107 190.255C297.107 197.538 297.148 197.67 299.41 197.67C301.606 197.67 301.713 197.413 301.713 192.139C301.713 188.088 302.082 186.463 303.095 186.067C306.168 184.865 307.239 186.434 307.239 192.139C307.239 197.044 307.448 197.67 309.082 197.67C310.745 197.67 310.924 197.044 310.924 191.214C310.924 187.19 310.49 184.396 309.772 183.795C309.14 183.263 306.031 182.832 302.864 182.834L297.107 182.84V190.255ZM313.687 190.161C313.687 197.044 313.841 197.67 315.529 197.67C317.218 197.67 317.371 197.044 317.371 190.161C317.371 183.278 317.218 182.652 315.529 182.652C313.841 182.652 313.687 183.278 313.687 190.161ZM320.135 184.529C320.135 186.069 320.749 186.407 323.55 186.407H326.965L323.09 190.431C317.238 196.508 317.724 197.67 326.122 197.67C331.648 197.67 333.03 197.388 333.03 196.262C333.03 195.21 331.934 194.854 328.693 194.854H324.357L328.233 190.829C330.429 188.549 332.109 185.905 332.109 184.728C332.109 182.799 331.686 182.652 326.122 182.652C320.749 182.652 320.135 182.845 320.135 184.529ZM336.212 184.957C331.447 189.812 334.738 198.608 341.32 198.608C344.877 198.608 350.34 193.733 347.44 193.147C346.499 192.956 345.276 193.263 344.722 193.827C342.736 195.852 337.635 194.43 337.635 191.85C337.635 191.438 340.122 191.1 343.162 191.1C347.941 191.1 348.689 190.863 348.689 189.349C348.689 188.386 347.829 186.486 346.779 185.125C344.216 181.804 339.382 181.727 336.212 184.957ZM439.374 184.957C436.806 187.573 436.496 190.915 438.461 194.786C440.8 199.397 445.969 199.995 449.794 196.097C452.565 193.273 451.32 191.944 447.736 193.898C445.047 195.366 442.286 194.815 441.892 192.732C441.628 191.339 442.337 191.1 446.717 191.1C451.113 191.1 451.851 190.848 451.851 189.349C451.851 188.386 450.991 186.486 449.941 185.125C447.378 181.804 442.544 181.727 439.374 184.957ZM452.078 183.826C452.311 184.471 453.426 187.849 454.554 191.334C456.408 197.058 456.845 197.67 459.072 197.67C461.285 197.67 461.765 197.018 463.745 191.334C464.958 187.849 466.138 184.471 466.368 183.826C466.629 183.093 465.948 182.652 464.558 182.652C462.657 182.652 462.159 183.339 461.15 187.347C460.501 189.929 459.65 191.84 459.26 191.594C458.87 191.349 458.026 189.237 457.384 186.9C456.402 183.325 455.856 182.652 453.935 182.652C452.497 182.652 451.81 183.086 452.078 183.826ZM469.015 184.598C463.768 188.803 467.226 198.608 473.957 198.608C477.514 198.608 482.977 193.733 480.077 193.147C479.136 192.956 477.913 193.263 477.359 193.827C475.373 195.852 470.272 194.43 470.272 191.85C470.272 191.438 472.759 191.1 475.799 191.1C480.753 191.1 481.326 190.901 481.326 189.18C481.326 186.332 477.266 182.652 474.123 182.652C472.648 182.652 470.35 183.528 469.015 184.598ZM483.168 190.161C483.168 197.044 483.322 197.67 485.01 197.67C486.602 197.67 486.852 197.044 486.852 193.043C486.852 188.784 488.413 185.468 490.418 185.468C492.215 185.468 493.3 188.189 493.3 192.695C493.3 197.044 493.532 197.67 495.142 197.67C496.781 197.67 496.984 197.044 496.984 191.976C496.984 184.634 495.94 182.652 492.07 182.652C490.416 182.652 488.565 183.159 487.957 183.779C487.098 184.654 486.852 184.654 486.852 183.779C486.852 183.159 486.023 182.652 485.01 182.652C483.322 182.652 483.168 183.278 483.168 190.161ZM22.6224 187.345C22.6224 189.066 23.2368 189.222 29.9911 189.222C36.7455 189.222 37.3599 189.066 37.3599 187.345C37.3599 185.625 36.7455 185.468 29.9911 185.468C23.2368 185.468 22.6224 185.625 22.6224 187.345ZM76.7825 186.594C79.2658 189.125 77.7506 194.854 74.5977 194.854C70.9585 194.854 69.248 189.712 71.9662 186.943C73.6969 185.179 75.2812 185.064 76.7825 186.594ZM93.3622 186.594C95.2154 188.483 94.6185 189.222 91.2437 189.222C89.4706 189.222 88.0199 188.885 88.0199 188.472C88.0199 187.375 90.0674 185.468 91.2437 185.468C91.8009 185.468 92.7543 185.975 93.3622 186.594ZM110.076 186.815C110.68 187.556 111.041 189.561 110.879 191.273C110.619 194.038 110.279 194.385 107.823 194.385C105.368 194.385 105.028 194.038 104.767 191.273C104.463 188.045 105.82 185.468 107.823 185.468C108.459 185.468 109.473 186.074 110.076 186.815ZM126.706 187.345C127.606 189.058 127.406 189.222 124.435 189.222C119.88 189.222 120.032 185.844 124.601 185.542C125.216 185.502 126.163 186.313 126.706 187.345ZM159.339 186.943C161.021 188.657 161.17 190.492 159.833 193.039C157.935 196.651 153.417 194.625 153.417 190.161C153.417 185.866 156.59 184.142 159.339 186.943ZM176.272 187.58C176.519 188.899 175.924 189.222 173.256 189.222C170.185 189.222 170.01 189.075 170.947 187.288C172.173 184.956 175.819 185.155 176.272 187.58ZM247.319 186.815C247.922 187.556 248.283 189.561 248.122 191.273C247.861 194.038 247.521 194.385 245.066 194.385C242.61 194.385 242.27 194.038 242.01 191.273C241.706 188.045 243.062 185.468 245.066 185.468C245.701 185.468 246.715 186.074 247.319 186.815ZM274.034 186.82C274.639 187.562 275 189.358 274.837 190.809C274.586 193.046 274.122 193.446 271.777 193.446C269.433 193.446 268.969 193.046 268.718 190.809C268.403 188.009 269.859 185.468 271.777 185.468C272.413 185.468 273.429 186.076 274.034 186.82ZM344.083 187.345C344.994 189.08 344.783 189.222 341.32 189.222C337.857 189.222 337.646 189.08 338.557 187.345C339.099 186.313 340.343 185.468 341.32 185.468C342.297 185.468 343.541 186.313 344.083 187.345ZM359.692 186.815C360.295 187.556 360.656 189.561 360.495 191.273C360.264 193.732 359.742 194.451 358.004 194.701C355.487 195.064 354.249 193.56 354.229 190.114C354.205 186.043 357.462 184.077 359.692 186.815ZM447.245 187.345C448.145 189.058 447.945 189.222 444.975 189.222C442.876 189.222 441.719 188.778 441.719 187.971C441.719 184.945 445.746 184.49 447.245 187.345ZM476.548 187.58C476.795 188.899 476.2 189.222 473.531 189.222C470.46 189.222 470.285 189.075 471.223 187.288C472.449 184.956 476.095 185.155 476.548 187.58ZM290.66 192.393C290.66 194.247 288.164 196.098 286.527 195.458C284.842 194.799 284.685 192.379 286.285 191.721C288.539 190.795 290.66 191.119 290.66 192.393ZM22.6224 193.446C22.6224 194.58 24.0556 194.854 29.9911 194.854C35.9266 194.854 37.3599 194.58 37.3599 193.446C37.3599 192.312 35.9266 192.038 29.9911 192.038C24.0556 192.038 22.6224 192.312 22.6224 193.446Z" fill="#ECECEC"/>
</svg>
